<?xml version="1.0" standalone="no"?>
<!DOCTYPE svg PUBLIC "-//W3C//DTD SVG 20010904//EN"
 "http://www.w3.org/TR/2001/REC-SVG-20010904/DTD/svg10.dtd">
<svg version="1.0" xmlns="http://www.w3.org/2000/svg"
 width="16.000000pt" height="16.000000pt" viewBox="0 0 16.000000 16.000000"
 preserveAspectRatio="xMidYMid meet">
<metadata>
Created by potrace 1.11, written by Peter Selinger 2001-2013
</metadata>
<g transform="translate(0.000000,16.000000) scale(0.002936,-0.002936)"
fill="#000000" stroke="none">
<path d="M939 5088 c-1 -2 -4 -63 -8 -136 -4 -80 -10 -136 -17 -140 -6 -4 -13
-43 -16 -88 -3 -53 -10 -89 -21 -105 -11 -15 -17 -43 -17 -80 0 -38 -5 -61
-15 -69 -9 -7 -15 -29 -15 -55 0 -27 -7 -51 -20 -68 -11 -14 -20 -32 -20 -41
0 -9 -7 -16 -15 -16 -8 0 -15 -7 -15 -15 0 -8 -7 -15 -16 -15 -9 0 -18 -9 -21
-20 -3 -11 -13 -20 -23 -20 -10 0 -23 -7 -30 -15 -7 -8 -23 -15 -36 -15 -12 0
-30 -7 -38 -16 -9 -9 -41 -18 -74 -21 -31 -3 -71 -11 -89 -19 -19 -9 -68 -14
-130 -15 -54 0 -107 -4 -117 -8 -18 -7 -18 -8 5 -14 13 -4 53 -7 87 -7 36 0
75 -6 90 -14 15 -8 44 -18 65 -21 21 -3 41 -13 44 -21 3 -8 19 -14 39 -14 22
0 34 -5 34 -14 0 -8 15 -17 34 -20 19 -4 37 -13 40 -21 3 -8 12 -15 21 -15 8
0 15 -6 15 -14 0 -8 14 -17 30 -21 17 -4 30 -11 30 -16 0 -5 9 -18 20 -29 11
-11 20 -27 20 -35 0 -8 7 -15 15 -15 8 0 15 -7 15 -16 0 -9 9 -27 20 -41 13
-17 20 -41 20 -68 0 -24 6 -48 14 -54 8 -7 15 -38 18 -82 2 -43 9 -73 17 -78
8 -5 15 -39 18 -92 4 -55 11 -87 19 -92 10 -6 14 -34 14 -105 0 -72 4 -103 16
-120 32 -46 41 -28 46 91 4 75 11 122 22 142 10 18 16 54 16 93 0 36 6 72 14
85 7 12 16 51 19 86 3 35 11 67 18 71 6 4 14 31 17 59 2 28 11 56 18 62 8 6
14 20 14 31 0 11 9 22 20 25 11 3 20 9 20 14 0 11 79 89 91 89 5 0 9 7 9 15 0
8 8 15 18 15 11 0 27 9 37 20 10 11 26 20 35 20 10 0 23 6 29 14 6 7 29 16 50
20 22 3 41 11 43 16 2 6 21 13 43 17 22 3 47 12 55 19 9 8 48 14 95 16 123 5
97 23 -37 26 -87 2 -119 6 -128 17 -8 10 -31 15 -69 15 -39 0 -65 6 -86 20
-16 11 -42 20 -57 20 -18 0 -28 5 -28 15 0 9 -9 15 -25 15 -14 0 -30 9 -37 20
-7 11 -18 20 -25 20 -7 0 -13 6 -13 14 0 7 -9 16 -20 19 -11 3 -20 14 -20 25
0 11 -7 25 -15 32 -8 7 -15 29 -15 49 0 20 -7 47 -16 59 -9 13 -18 51 -21 85
-3 34 -12 72 -19 84 -8 13 -14 49 -14 85 0 38 -6 75 -16 93 -10 20 -18 72 -22
155 -7 120 -8 125 -29 128 -13 2 -24 2 -24 0z m81 -778 c11 -11 25 -20 30 -20
6 0 10 -4 10 -9 0 -5 17 -27 38 -48 20 -21 46 -51 57 -67 11 -15 26 -34 33
-41 17 -19 16 -110 -3 -125 -8 -7 -15 -18 -15 -24 0 -6 -8 -19 -17 -28 -10 -8
-34 -35 -53 -59 -63 -77 -100 -109 -128 -109 -42 0 -72 11 -72 26 0 8 -7 14
-15 14 -8 0 -15 4 -15 9 0 9 -24 41 -62 82 -10 10 -18 23 -18 29 0 5 -6 13
-13 17 -15 9 -47 90 -47 119 0 24 28 84 39 84 4 0 21 19 38 43 17 23 50 61 73
85 34 35 47 42 80 42 27 0 47 -7 60 -20z"/>
<path d="M3415 4998 c-2 -7 -6 -80 -9 -163 -3 -94 -11 -168 -20 -199 -10 -29
-16 -85 -16 -138 0 -58 -5 -96 -14 -111 -8 -12 -16 -60 -19 -107 -3 -47 -12
-102 -21 -122 -9 -21 -16 -65 -16 -98 0 -34 -6 -70 -14 -83 -8 -12 -16 -53
-19 -91 -3 -38 -10 -72 -17 -76 -7 -4 -16 -42 -20 -85 -4 -43 -12 -80 -17 -84
-6 -3 -13 -34 -16 -68 -3 -38 -11 -69 -21 -78 -10 -10 -16 -33 -16 -59 0 -27
-6 -48 -15 -56 -8 -7 -15 -26 -15 -42 0 -16 -6 -31 -15 -34 -8 -4 -15 -11 -15
-17 0 -12 -11 -25 -76 -91 -67 -66 -79 -76 -92 -76 -7 0 -12 -7 -12 -15 0 -10
-10 -15 -30 -15 -19 0 -30 -5 -30 -14 0 -15 -21 -26 -51 -26 -11 0 -22 -7 -25
-15 -4 -10 -20 -15 -44 -15 -21 0 -43 -6 -49 -14 -6 -7 -32 -16 -57 -19 -26
-2 -50 -10 -54 -16 -4 -7 -40 -14 -81 -17 -41 -3 -88 -12 -106 -20 -18 -8 -67
-14 -120 -15 -48 0 -113 -5 -143 -10 -30 -6 -139 -14 -241 -18 -102 -4 -191
-11 -198 -16 -26 -16 14 -25 114 -25 63 0 109 -5 125 -13 15 -8 55 -17 90 -20
35 -4 67 -12 71 -19 4 -7 38 -14 74 -16 44 -3 68 -9 72 -18 3 -9 21 -14 49
-14 29 0 47 -5 50 -14 3 -7 25 -16 50 -20 25 -3 52 -13 60 -21 9 -8 26 -15 38
-15 13 0 29 -7 36 -15 7 -8 22 -15 35 -15 12 0 30 -9 40 -20 10 -11 26 -20 36
-20 10 0 24 -7 33 -15 8 -8 21 -15 29 -15 8 0 26 -9 40 -20 14 -11 30 -20 35
-20 5 0 12 -7 16 -15 3 -8 12 -15 20 -15 9 0 20 -9 26 -20 6 -12 21 -20 35
-20 16 0 25 -6 25 -15 0 -8 7 -15 15 -15 8 0 15 -7 15 -15 0 -8 7 -15 16 -15
9 0 18 -9 21 -20 3 -11 9 -20 14 -20 13 0 59 -46 59 -59 0 -6 7 -11 15 -11 8
0 15 -7 15 -15 0 -9 6 -18 14 -21 8 -3 18 -19 21 -35 4 -16 13 -29 21 -29 9 0
14 -11 14 -34 0 -18 6 -39 14 -45 7 -6 16 -36 18 -67 3 -31 10 -59 17 -64 7
-4 15 -36 18 -71 3 -35 12 -73 19 -84 8 -11 14 -42 14 -70 0 -29 6 -60 15 -73
9 -12 20 -56 25 -98 4 -42 12 -79 18 -83 5 -3 11 -41 14 -84 2 -48 8 -81 16
-86 7 -4 15 -41 18 -92 4 -46 12 -93 19 -104 7 -11 14 -64 17 -118 3 -67 8
-101 17 -107 10 -5 15 -47 19 -146 4 -120 8 -143 26 -167 18 -25 21 -26 28
-10 3 10 7 71 7 136 1 79 6 130 15 150 8 18 17 79 20 136 3 61 10 107 17 111
6 4 14 50 18 103 4 53 12 102 18 109 6 7 13 48 16 90 3 46 12 86 21 100 10 14
16 44 16 81 0 32 6 68 14 80 7 12 16 50 19 84 3 34 12 72 21 85 10 13 16 43
16 74 0 37 4 54 15 58 11 4 15 21 15 59 0 36 5 59 15 67 8 7 15 21 15 31 0 11
8 27 19 38 10 10 20 22 22 27 13 29 52 84 60 84 5 0 9 4 9 10 0 12 48 60 60
60 6 0 10 6 10 14 0 8 9 18 20 21 11 3 20 13 20 21 0 8 10 14 25 14 14 0 28 7
31 15 4 8 12 15 20 15 8 0 14 7 14 15 0 9 12 18 29 21 17 4 32 12 35 20 3 8
15 14 26 14 11 0 20 7 20 15 0 8 14 17 35 21 20 3 35 12 35 20 0 9 11 14 30
14 18 0 33 6 36 15 3 8 21 17 40 21 18 3 38 12 45 20 6 8 27 14 46 14 20 0 36
6 39 15 4 9 26 17 54 21 27 4 51 13 54 20 4 9 21 14 51 14 31 0 47 5 51 15 5
11 22 15 64 15 38 0 62 5 69 14 7 8 41 18 79 22 37 3 76 11 87 18 11 6 68 13
127 16 101 5 130 12 114 27 -3 4 -86 9 -184 11 -97 2 -182 9 -189 14 -6 5 -76
12 -155 15 -86 4 -151 11 -163 18 -11 7 -53 15 -93 18 -47 3 -79 10 -91 21
-10 9 -35 16 -62 16 -24 0 -53 7 -63 15 -11 8 -36 15 -57 15 -24 0 -39 5 -43
15 -3 8 -16 15 -29 15 -14 0 -35 8 -48 18 -13 10 -45 29 -71 42 -27 14 -48 31
-48 37 0 7 -9 13 -20 13 -11 0 -20 7 -20 15 0 8 -6 15 -14 15 -7 0 -16 9 -19
20 -3 11 -12 20 -21 20 -9 0 -16 7 -16 15 0 8 -7 15 -15 15 -8 0 -15 7 -15 15
0 8 -9 24 -20 35 -11 11 -20 27 -20 36 0 8 -7 22 -15 30 -10 10 -15 35 -15 69
0 36 -4 55 -14 58 -9 4 -15 27 -18 67 -2 34 -9 65 -16 69 -6 3 -14 38 -18 76
-3 39 -13 80 -20 92 -8 12 -14 48 -14 80 0 37 -6 67 -16 81 -9 14 -18 54 -21
100 -3 42 -12 89 -19 104 -8 15 -14 58 -14 98 0 42 -6 86 -16 108 -9 22 -18
79 -21 142 -3 58 -11 119 -19 137 -10 22 -14 72 -14 170 0 76 -3 148 -6 161
-7 24 -42 31 -49 10z m62 -1120 c12 -13 24 -38 28 -55 3 -18 10 -33 15 -33 5
0 12 -21 15 -47 3 -27 11 -57 17 -68 6 -11 17 -47 24 -80 19 -90 35 -147 49
-175 7 -14 16 -40 20 -57 3 -18 10 -33 15 -33 5 0 11 -13 15 -29 3 -16 13 -32
21 -35 8 -3 14 -14 14 -25 0 -11 6 -24 13 -28 7 -4 25 -23 40 -42 33 -40 130
-121 144 -121 6 0 13 -7 17 -15 3 -8 17 -15 31 -15 14 0 28 -6 31 -14 3 -8 19
-18 35 -21 16 -4 29 -11 29 -16 0 -5 7 -9 16 -9 9 0 30 -6 47 -14 18 -8 61
-27 97 -42 36 -16 75 -39 88 -52 22 -23 31 -72 12 -72 -5 0 -10 -6 -10 -14 0
-8 -15 -25 -32 -37 -18 -13 -39 -29 -46 -36 -7 -7 -22 -13 -32 -13 -11 0 -23
-6 -27 -12 -8 -13 -33 -29 -85 -56 -16 -7 -28 -17 -28 -22 0 -5 -13 -11 -30
-15 -16 -4 -30 -13 -30 -21 0 -8 -7 -14 -15 -14 -9 0 -18 -7 -21 -15 -4 -8
-11 -15 -18 -15 -6 0 -46 -35 -90 -77 -95 -94 -106 -107 -106 -120 0 -6 -7
-13 -15 -17 -8 -3 -15 -17 -15 -31 0 -14 -6 -28 -14 -31 -8 -3 -18 -19 -21
-35 -4 -16 -11 -29 -16 -29 -5 0 -9 -8 -9 -17 -1 -10 -9 -36 -20 -58 -11 -22
-19 -50 -20 -62 0 -12 -9 -45 -20 -73 -11 -28 -20 -63 -20 -78 0 -15 -6 -39
-14 -53 -7 -14 -16 -47 -20 -73 -4 -25 -11 -46 -16 -46 -4 0 -11 -12 -14 -26
-10 -38 -47 -84 -68 -84 -40 0 -91 84 -104 171 -4 24 -13 56 -20 71 -8 15 -14
45 -14 67 0 22 -4 42 -9 46 -5 3 -13 20 -16 38 -14 62 -46 154 -85 237 -17 36
-36 66 -47 73 -7 4 -13 12 -13 18 0 24 -109 149 -130 149 -5 0 -10 7 -10 15 0
8 -5 15 -11 15 -11 0 -44 24 -106 77 -21 18 -43 33 -50 33 -6 0 -18 6 -25 13
-15 13 -47 33 -90 55 -16 7 -28 17 -28 22 0 4 -11 11 -25 14 -15 4 -31 18 -38
34 -6 15 -17 31 -25 35 -16 10 -7 42 18 67 23 23 100 63 175 91 33 13 65 29
71 36 6 7 23 13 38 13 16 0 26 5 26 15 0 8 9 15 20 15 11 0 20 4 20 8 0 4 13
15 28 24 33 20 135 117 145 138 4 8 16 29 27 45 11 17 26 44 34 61 8 17 19 35
25 38 6 4 11 17 11 30 0 12 4 26 9 32 6 5 17 35 25 68 9 32 20 63 25 70 4 6
12 38 16 71 4 33 10 65 15 70 4 6 12 30 18 55 34 145 88 203 139 148z"/>
<path d="M1766 2328 c-3 -7 -7 -65 -9 -128 -4 -77 -11 -125 -21 -145 -10 -18
-16 -55 -16 -93 0 -36 -6 -72 -14 -85 -7 -12 -16 -50 -20 -85 -3 -35 -13 -73
-21 -85 -8 -12 -15 -37 -15 -55 0 -18 -7 -40 -15 -48 -8 -9 -15 -25 -15 -36 0
-11 -8 -22 -20 -25 -11 -3 -20 -12 -20 -19 0 -8 -6 -14 -13 -14 -7 0 -18 -9
-25 -20 -7 -11 -21 -20 -32 -20 -12 0 -23 -7 -26 -15 -4 -8 -19 -15 -35 -15
-16 0 -32 -7 -37 -17 -8 -13 -29 -17 -98 -21 -55 -3 -95 -10 -104 -18 -10 -9
-50 -14 -115 -16 -123 -4 -134 -22 -15 -26 56 -2 88 -7 95 -16 6 -7 32 -15 58
-18 26 -3 56 -13 66 -22 10 -9 32 -16 49 -16 22 0 32 -5 32 -15 0 -8 9 -15 19
-15 30 0 51 -11 51 -26 0 -8 7 -14 15 -14 8 0 15 -5 15 -10 0 -6 12 -16 28
-23 31 -14 69 -51 77 -77 3 -10 12 -21 20 -24 8 -3 15 -12 15 -19 0 -8 6 -20
14 -26 7 -6 16 -36 18 -67 3 -31 10 -59 17 -64 7 -4 15 -36 18 -71 3 -35 11
-73 18 -84 7 -11 14 -55 17 -99 3 -45 10 -81 17 -86 8 -4 14 -45 18 -106 3
-60 11 -108 20 -122 28 -44 38 -20 43 102 3 70 9 120 16 124 6 4 13 43 16 88
3 53 10 89 21 105 11 15 17 43 17 80 0 38 5 61 15 69 9 7 15 29 15 55 0 27 7
51 20 68 11 14 20 32 20 41 0 9 7 16 15 16 8 0 15 7 15 15 0 8 7 15 15 15 8 0
15 5 15 11 0 13 46 59 59 59 5 0 11 7 15 15 3 8 12 15 20 15 7 0 16 6 19 14 3
8 19 17 36 21 16 3 35 13 42 21 6 8 24 14 40 14 15 0 34 7 43 15 8 8 36 18 63
22 26 3 54 12 61 20 9 8 39 13 85 13 75 0 114 11 82 24 -9 3 -60 6 -113 6 -61
0 -106 5 -122 13 -15 8 -56 17 -93 20 -40 4 -74 13 -83 22 -9 8 -29 15 -45 15
-17 0 -32 6 -35 14 -3 8 -19 18 -35 21 -16 4 -29 13 -29 21 0 8 -6 14 -12 14
-17 0 -53 40 -62 67 -4 11 -13 27 -21 33 -9 7 -15 30 -15 54 0 22 -7 50 -15
60 -9 12 -15 42 -15 70 0 28 -7 65 -16 81 -9 17 -19 64 -21 105 -3 41 -11 81
-17 89 -6 8 -13 69 -16 140 -5 121 -6 126 -28 129 -12 2 -24 -3 -26 -10z m84
-758 c0 -6 23 -34 50 -63 100 -103 130 -148 130 -193 0 -26 -7 -51 -20 -67
-11 -14 -20 -30 -20 -36 0 -6 -7 -11 -15 -11 -8 0 -15 -6 -15 -12 0 -7 -16
-29 -35 -47 -19 -19 -37 -42 -40 -50 -8 -21 -71 -61 -98 -61 -30 0 -85 40
-100 73 -6 15 -18 27 -24 27 -7 0 -13 6 -13 14 0 8 -7 16 -15 20 -8 3 -15 12
-15 21 0 8 -5 15 -10 15 -12 0 -60 104 -60 131 0 9 6 24 13 31 6 7 18 24 25
38 7 14 33 47 57 74 25 27 45 51 45 55 0 3 15 16 33 29 33 23 127 32 127 12z"/>
</g>
</svg>
